<?xml version="1.0" encoding="UTF-8" standalone="no"?>
<!DOCTYPE svg PUBLIC "-//W3C//DTD SVG 1.1//EN"
 "http://www.w3.org/Graphics/SVG/1.1/DTD/svg11.dtd">
<!-- Generated by graphviz version 2.40.1 (20161225.0304)
 -->
<!-- Title: Tree Pages: 1 -->
<svg width="392pt" height="269pt"
 viewBox="0.00 0.00 392.00 269.00" xmlns="http://www.w3.org/2000/svg" xmlns:xlink="http://www.w3.org/1999/xlink">
<g id="graph0" class="graph" transform="scale(1 1) rotate(0) translate(4 265)">
<title>Tree</title>
<polygon fill="#ffffff" stroke="transparent" points="-4,4 -4,-265 388,-265 388,4 -4,4"/>
<!-- 0 -->
<g id="node1" class="node">
<title>0</title>
<polygon fill="none" stroke="#000000" points="311,-261 152,-261 152,-193 311,-193 311,-261"/>
<text text-anchor="middle" x="231.5" y="-245.8" font-family="Helvetica,sans-Serif" font-size="14.00" fill="#000000">X[1] &lt;= 5.746</text>
<text text-anchor="middle" x="231.5" y="-230.8" font-family="Helvetica,sans-Serif" font-size="14.00" fill="#000000">gini = 0.667</text>
<text text-anchor="middle" x="231.5" y="-215.8" font-family="Helvetica,sans-Serif" font-size="14.00" fill="#000000">samples = 100</text>
<text text-anchor="middle" x="231.5" y="-200.8" font-family="Helvetica,sans-Serif" font-size="14.00" fill="#000000">value = [34, 33, 33]</text>
</g>
<!-- 1 -->
<g id="node2" class="node">
<title>1</title>
<polygon fill="none" stroke="#000000" points="224.5,-157 74.5,-157 74.5,-89 224.5,-89 224.5,-157"/>
<text text-anchor="middle" x="149.5" y="-141.8" font-family="Helvetica,sans-Serif" font-size="14.00" fill="#000000">X[1] &lt;= &#45;2.087</text>
<text text-anchor="middle" x="149.5" y="-126.8" font-family="Helvetica,sans-Serif" font-size="14.00" fill="#000000">gini = 0.5</text>
<text text-anchor="middle" x="149.5" y="-111.8" font-family="Helvetica,sans-Serif" font-size="14.00" fill="#000000">samples = 66</text>
<text text-anchor="middle" x="149.5" y="-96.8" font-family="Helvetica,sans-Serif" font-size="14.00" fill="#000000">value = [0, 33, 33]</text>
</g>
<!-- 0&#45;&gt;1 -->
<g id="edge1" class="edge">
<title>0&#45;&gt;1</title>
<path fill="none" stroke="#000000" d="M204.6501,-192.9465C197.6417,-184.0578 190.0045,-174.3716 182.709,-165.1188"/>
<polygon fill="#000000" stroke="#000000" points="185.3502,-162.8157 176.4102,-157.13 179.8533,-167.1498 185.3502,-162.8157"/>
<text text-anchor="middle" x="173.4737" y="-178.2569" font-family="Helvetica,sans-Serif" font-size="14.00" fill="#000000">True</text>
</g>
<!-- 4 -->
<g id="node5" class="node">
<title>4</title>
<polygon fill="none" stroke="#000000" points="384,-149.5 243,-149.5 243,-96.5 384,-96.5 384,-149.5"/>
<text text-anchor="middle" x="313.5" y="-134.3" font-family="Helvetica,sans-Serif" font-size="14.00" fill="#000000">gini = 0.0</text>
<text text-anchor="middle" x="313.5" y="-119.3" font-family="Helvetica,sans-Serif" font-size="14.00" fill="#000000">samples = 34</text>
<text text-anchor="middle" x="313.5" y="-104.3" font-family="Helvetica,sans-Serif" font-size="14.00" fill="#000000">value = [34, 0, 0]</text>
</g>
<!-- 0&#45;&gt;4 -->
<g id="edge4" class="edge">
<title>0&#45;&gt;4</title>
<path fill="none" stroke="#000000" d="M258.3499,-192.9465C267.2952,-181.6012 277.2649,-168.9567 286.241,-157.5724"/>
<polygon fill="#000000" stroke="#000000" points="289.1294,-159.5619 292.5725,-149.5422 283.6325,-155.2278 289.1294,-159.5619"/>
<text text-anchor="middle" x="295.509" y="-170.6691" font-family="Helvetica,sans-Serif" font-size="14.00" fill="#000000">False</text>
</g>
<!-- 2 -->
<g id="node3" class="node">
<title>2</title>
<polygon fill="none" stroke="#000000" points="141,-53 0,-53 0,0 141,0 141,-53"/>
<text text-anchor="middle" x="70.5" y="-37.8" font-family="Helvetica,sans-Serif" font-size="14.00" fill="#000000">gini = 0.0</text>
<text text-anchor="middle" x="70.5" y="-22.8" font-family="Helvetica,sans-Serif" font-size="14.00" fill="#000000">samples = 33</text>
<text text-anchor="middle" x="70.5" y="-7.8" font-family="Helvetica,sans-Serif" font-size="14.00" fill="#000000">value = [0, 0, 33]</text>
</g>
<!-- 1&#45;&gt;2 -->
<g id="edge2" class="edge">
<title>1&#45;&gt;2</title>
<path fill="none" stroke="#000000" d="M121.6476,-88.9777C114.2261,-79.9123 106.2023,-70.111 98.7593,-61.0192"/>
<polygon fill="#000000" stroke="#000000" points="101.4405,-58.7692 92.3977,-53.2485 96.0241,-63.2034 101.4405,-58.7692"/>
</g>
<!-- 3 -->
<g id="node4" class="node">
<title>3</title>
<polygon fill="none" stroke="#000000" points="300,-53 159,-53 159,0 300,0 300,-53"/>
<text text-anchor="middle" x="229.5" y="-37.8" font-family="Helvetica,sans-Serif" font-size="14.00" fill="#000000">gini = 0.0</text>
<text text-anchor="middle" x="229.5" y="-22.8" font-family="Helvetica,sans-Serif" font-size="14.00" fill="#000000">samples = 33</text>
<text text-anchor="middle" x="229.5" y="-7.8" font-family="Helvetica,sans-Serif" font-size="14.00" fill="#000000">value = [0, 33, 0]</text>
</g>
<!-- 1&#45;&gt;3 -->
<g id="edge3" class="edge">
<title>1&#45;&gt;3</title>
<path fill="none" stroke="#000000" d="M177.705,-88.9777C185.2204,-79.9123 193.3458,-70.111 200.883,-61.0192"/>
<polygon fill="#000000" stroke="#000000" points="203.6374,-63.1808 207.3251,-53.2485 198.2484,-58.7133 203.6374,-63.1808"/>
</g>
</g>
</svg>
