<?xml version="1.0" encoding="UTF-8" standalone="no"?>
<!DOCTYPE svg PUBLIC "-//W3C//DTD SVG 1.1//EN"
 "http://www.w3.org/Graphics/SVG/1.1/DTD/svg11.dtd">
<!-- Generated by graphviz version 2.40.1 (20161225.0304)
 -->
<!-- Title: Tree Pages: 1 -->
<svg width="546pt" height="373pt"
 viewBox="0.00 0.00 545.50 373.00" xmlns="http://www.w3.org/2000/svg" xmlns:xlink="http://www.w3.org/1999/xlink">
<g id="graph0" class="graph" transform="scale(1 1) rotate(0) translate(4 369)">
<title>Tree</title>
<polygon fill="#ffffff" stroke="transparent" points="-4,4 -4,-369 541.5,-369 541.5,4 -4,4"/>
<!-- 0 -->
<g id="node1" class="node">
<title>0</title>
<polygon fill="none" stroke="#000000" points="337.5,-365 205.5,-365 205.5,-297 337.5,-297 337.5,-365"/>
<text text-anchor="middle" x="271.5" y="-349.8" font-family="Helvetica,sans-Serif" font-size="14.00" fill="#000000">X[10] &lt;= 0.203</text>
<text text-anchor="middle" x="271.5" y="-334.8" font-family="Helvetica,sans-Serif" font-size="14.00" fill="#000000">gini = 0.5</text>
<text text-anchor="middle" x="271.5" y="-319.8" font-family="Helvetica,sans-Serif" font-size="14.00" fill="#000000">samples = 100</text>
<text text-anchor="middle" x="271.5" y="-304.8" font-family="Helvetica,sans-Serif" font-size="14.00" fill="#000000">value = [50, 50]</text>
</g>
<!-- 1 -->
<g id="node2" class="node">
<title>1</title>
<polygon fill="none" stroke="#000000" points="265.5,-261 131.5,-261 131.5,-193 265.5,-193 265.5,-261"/>
<text text-anchor="middle" x="198.5" y="-245.8" font-family="Helvetica,sans-Serif" font-size="14.00" fill="#000000">X[10] &lt;= &#45;0.301</text>
<text text-anchor="middle" x="198.5" y="-230.8" font-family="Helvetica,sans-Serif" font-size="14.00" fill="#000000">gini = 0.109</text>
<text text-anchor="middle" x="198.5" y="-215.8" font-family="Helvetica,sans-Serif" font-size="14.00" fill="#000000">samples = 52</text>
<text text-anchor="middle" x="198.5" y="-200.8" font-family="Helvetica,sans-Serif" font-size="14.00" fill="#000000">value = [49, 3]</text>
</g>
<!-- 0&#45;&gt;1 -->
<g id="edge1" class="edge">
<title>0&#45;&gt;1</title>
<path fill="none" stroke="#000000" d="M247.5971,-296.9465C241.4209,-288.1475 234.6962,-278.5672 228.261,-269.3993"/>
<polygon fill="#000000" stroke="#000000" points="231.0666,-267.3041 222.4566,-261.13 225.3371,-271.3258 231.0666,-267.3041"/>
<text text-anchor="middle" x="218.1437" y="-282.0552" font-family="Helvetica,sans-Serif" font-size="14.00" fill="#000000">True</text>
</g>
<!-- 6 -->
<g id="node7" class="node">
<title>6</title>
<polygon fill="none" stroke="#000000" points="407,-261 284,-261 284,-193 407,-193 407,-261"/>
<text text-anchor="middle" x="345.5" y="-245.8" font-family="Helvetica,sans-Serif" font-size="14.00" fill="#000000">X[5] &lt;= 2.347</text>
<text text-anchor="middle" x="345.5" y="-230.8" font-family="Helvetica,sans-Serif" font-size="14.00" fill="#000000">gini = 0.041</text>
<text text-anchor="middle" x="345.5" y="-215.8" font-family="Helvetica,sans-Serif" font-size="14.00" fill="#000000">samples = 48</text>
<text text-anchor="middle" x="345.5" y="-200.8" font-family="Helvetica,sans-Serif" font-size="14.00" fill="#000000">value = [1, 47]</text>
</g>
<!-- 0&#45;&gt;6 -->
<g id="edge6" class="edge">
<title>0&#45;&gt;6</title>
<path fill="none" stroke="#000000" d="M295.7304,-296.9465C301.9912,-288.1475 308.808,-278.5672 315.3313,-269.3993"/>
<polygon fill="#000000" stroke="#000000" points="318.2694,-271.3071 321.2152,-261.13 312.5658,-267.2488 318.2694,-271.3071"/>
<text text-anchor="middle" x="325.3701" y="-282.0823" font-family="Helvetica,sans-Serif" font-size="14.00" fill="#000000">False</text>
</g>
<!-- 2 -->
<g id="node3" class="node">
<title>2</title>
<polygon fill="none" stroke="#000000" points="123,-149.5 0,-149.5 0,-96.5 123,-96.5 123,-149.5"/>
<text text-anchor="middle" x="61.5" y="-134.3" font-family="Helvetica,sans-Serif" font-size="14.00" fill="#000000">gini = 0.0</text>
<text text-anchor="middle" x="61.5" y="-119.3" font-family="Helvetica,sans-Serif" font-size="14.00" fill="#000000">samples = 45</text>
<text text-anchor="middle" x="61.5" y="-104.3" font-family="Helvetica,sans-Serif" font-size="14.00" fill="#000000">value = [45, 0]</text>
</g>
<!-- 1&#45;&gt;2 -->
<g id="edge2" class="edge">
<title>1&#45;&gt;2</title>
<path fill="none" stroke="#000000" d="M153.6411,-192.9465C137.8252,-180.9403 120.0927,-167.4791 104.4393,-155.5962"/>
<polygon fill="#000000" stroke="#000000" points="106.5455,-152.8009 96.4642,-149.5422 102.3129,-158.3764 106.5455,-152.8009"/>
</g>
<!-- 3 -->
<g id="node4" class="node">
<title>3</title>
<polygon fill="none" stroke="#000000" points="260,-157 141,-157 141,-89 260,-89 260,-157"/>
<text text-anchor="middle" x="200.5" y="-141.8" font-family="Helvetica,sans-Serif" font-size="14.00" fill="#000000">X[1] &lt;= 0.094</text>
<text text-anchor="middle" x="200.5" y="-126.8" font-family="Helvetica,sans-Serif" font-size="14.00" fill="#000000">gini = 0.49</text>
<text text-anchor="middle" x="200.5" y="-111.8" font-family="Helvetica,sans-Serif" font-size="14.00" fill="#000000">samples = 7</text>
<text text-anchor="middle" x="200.5" y="-96.8" font-family="Helvetica,sans-Serif" font-size="14.00" fill="#000000">value = [4, 3]</text>
</g>
<!-- 1&#45;&gt;3 -->
<g id="edge3" class="edge">
<title>1&#45;&gt;3</title>
<path fill="none" stroke="#000000" d="M199.1549,-192.9465C199.312,-184.776 199.4821,-175.9318 199.6467,-167.3697"/>
<polygon fill="#000000" stroke="#000000" points="203.1506,-167.1955 199.8437,-157.13 196.1519,-167.0608 203.1506,-167.1955"/>
</g>
<!-- 4 -->
<g id="node5" class="node">
<title>4</title>
<polygon fill="none" stroke="#000000" points="191.5,-53 77.5,-53 77.5,0 191.5,0 191.5,-53"/>
<text text-anchor="middle" x="134.5" y="-37.8" font-family="Helvetica,sans-Serif" font-size="14.00" fill="#000000">gini = 0.0</text>
<text text-anchor="middle" x="134.5" y="-22.8" font-family="Helvetica,sans-Serif" font-size="14.00" fill="#000000">samples = 4</text>
<text text-anchor="middle" x="134.5" y="-7.8" font-family="Helvetica,sans-Serif" font-size="14.00" fill="#000000">value = [4, 0]</text>
</g>
<!-- 3&#45;&gt;4 -->
<g id="edge4" class="edge">
<title>3&#45;&gt;4</title>
<path fill="none" stroke="#000000" d="M177.2309,-88.9777C171.156,-80.0954 164.5979,-70.5067 158.4865,-61.5711"/>
<polygon fill="#000000" stroke="#000000" points="161.3286,-59.5267 152.7943,-53.2485 155.5507,-63.4785 161.3286,-59.5267"/>
</g>
<!-- 5 -->
<g id="node6" class="node">
<title>5</title>
<polygon fill="none" stroke="#000000" points="323.5,-53 209.5,-53 209.5,0 323.5,0 323.5,-53"/>
<text text-anchor="middle" x="266.5" y="-37.8" font-family="Helvetica,sans-Serif" font-size="14.00" fill="#000000">gini = 0.0</text>
<text text-anchor="middle" x="266.5" y="-22.8" font-family="Helvetica,sans-Serif" font-size="14.00" fill="#000000">samples = 3</text>
<text text-anchor="middle" x="266.5" y="-7.8" font-family="Helvetica,sans-Serif" font-size="14.00" fill="#000000">value = [0, 3]</text>
</g>
<!-- 3&#45;&gt;5 -->
<g id="edge5" class="edge">
<title>3&#45;&gt;5</title>
<path fill="none" stroke="#000000" d="M223.7691,-88.9777C229.844,-80.0954 236.4021,-70.5067 242.5135,-61.5711"/>
<polygon fill="#000000" stroke="#000000" points="245.4493,-63.4785 248.2057,-53.2485 239.6714,-59.5267 245.4493,-63.4785"/>
</g>
<!-- 7 -->
<g id="node8" class="node">
<title>7</title>
<polygon fill="none" stroke="#000000" points="405,-149.5 282,-149.5 282,-96.5 405,-96.5 405,-149.5"/>
<text text-anchor="middle" x="343.5" y="-134.3" font-family="Helvetica,sans-Serif" font-size="14.00" fill="#000000">gini = 0.0</text>
<text text-anchor="middle" x="343.5" y="-119.3" font-family="Helvetica,sans-Serif" font-size="14.00" fill="#000000">samples = 47</text>
<text text-anchor="middle" x="343.5" y="-104.3" font-family="Helvetica,sans-Serif" font-size="14.00" fill="#000000">value = [0, 47]</text>
</g>
<!-- 6&#45;&gt;7 -->
<g id="edge7" class="edge">
<title>6&#45;&gt;7</title>
<path fill="none" stroke="#000000" d="M344.8451,-192.9465C344.6397,-182.2621 344.412,-170.4254 344.2034,-159.5742"/>
<polygon fill="#000000" stroke="#000000" points="347.7021,-159.473 344.0104,-149.5422 340.7034,-159.6076 347.7021,-159.473"/>
</g>
<!-- 8 -->
<g id="node9" class="node">
<title>8</title>
<polygon fill="none" stroke="#000000" points="537.5,-149.5 423.5,-149.5 423.5,-96.5 537.5,-96.5 537.5,-149.5"/>
<text text-anchor="middle" x="480.5" y="-134.3" font-family="Helvetica,sans-Serif" font-size="14.00" fill="#000000">gini = 0.0</text>
<text text-anchor="middle" x="480.5" y="-119.3" font-family="Helvetica,sans-Serif" font-size="14.00" fill="#000000">samples = 1</text>
<text text-anchor="middle" x="480.5" y="-104.3" font-family="Helvetica,sans-Serif" font-size="14.00" fill="#000000">value = [1, 0]</text>
</g>
<!-- 6&#45;&gt;8 -->
<g id="edge8" class="edge">
<title>6&#45;&gt;8</title>
<path fill="none" stroke="#000000" d="M389.704,-192.9465C405.1461,-181.0504 422.4422,-167.726 437.7625,-155.9237"/>
<polygon fill="#000000" stroke="#000000" points="440.2603,-158.4176 446.0462,-149.5422 435.9883,-152.8723 440.2603,-158.4176"/>
</g>
</g>
</svg>
