<?xml version="1.0" encoding="UTF-8" standalone="no"?>
<!DOCTYPE svg PUBLIC "-//W3C//DTD SVG 1.1//EN"
 "http://www.w3.org/Graphics/SVG/1.1/DTD/svg11.dtd">
<!-- Generated by graphviz version 2.40.1 (20161225.0304)
 -->
<!-- Title: Tree Pages: 1 -->
<svg width="553pt" height="373pt"
 viewBox="0.00 0.00 552.50 373.00" xmlns="http://www.w3.org/2000/svg" xmlns:xlink="http://www.w3.org/1999/xlink">
<g id="graph0" class="graph" transform="scale(1 1) rotate(0) translate(4 369)">
<title>Tree</title>
<polygon fill="#ffffff" stroke="transparent" points="-4,4 -4,-369 548.5,-369 548.5,4 -4,4"/>
<!-- 0 -->
<g id="node1" class="node">
<title>0</title>
<polygon fill="none" stroke="#000000" points="343.5,-365 211.5,-365 211.5,-297 343.5,-297 343.5,-365"/>
<text text-anchor="middle" x="277.5" y="-349.8" font-family="Helvetica,sans-Serif" font-size="14.00" fill="#000000">X[10] &lt;= 0.203</text>
<text text-anchor="middle" x="277.5" y="-334.8" font-family="Helvetica,sans-Serif" font-size="14.00" fill="#000000">gini = 0.5</text>
<text text-anchor="middle" x="277.5" y="-319.8" font-family="Helvetica,sans-Serif" font-size="14.00" fill="#000000">samples = 100</text>
<text text-anchor="middle" x="277.5" y="-304.8" font-family="Helvetica,sans-Serif" font-size="14.00" fill="#000000">value = [50, 50]</text>
</g>
<!-- 1 -->
<g id="node2" class="node">
<title>1</title>
<polygon fill="none" stroke="#000000" points="271.5,-261 137.5,-261 137.5,-193 271.5,-193 271.5,-261"/>
<text text-anchor="middle" x="204.5" y="-245.8" font-family="Helvetica,sans-Serif" font-size="14.00" fill="#000000">X[10] &lt;= &#45;0.301</text>
<text text-anchor="middle" x="204.5" y="-230.8" font-family="Helvetica,sans-Serif" font-size="14.00" fill="#000000">gini = 0.109</text>
<text text-anchor="middle" x="204.5" y="-215.8" font-family="Helvetica,sans-Serif" font-size="14.00" fill="#000000">samples = 52</text>
<text text-anchor="middle" x="204.5" y="-200.8" font-family="Helvetica,sans-Serif" font-size="14.00" fill="#000000">value = [49, 3]</text>
</g>
<!-- 0&#45;&gt;1 -->
<g id="edge1" class="edge">
<title>0&#45;&gt;1</title>
<path fill="none" stroke="#000000" d="M253.5971,-296.9465C247.4209,-288.1475 240.6962,-278.5672 234.261,-269.3993"/>
<polygon fill="#000000" stroke="#000000" points="237.0666,-267.3041 228.4566,-261.13 231.3371,-271.3258 237.0666,-267.3041"/>
<text text-anchor="middle" x="224.1437" y="-282.0552" font-family="Helvetica,sans-Serif" font-size="14.00" fill="#000000">True</text>
</g>
<!-- 6 -->
<g id="node7" class="node">
<title>6</title>
<polygon fill="none" stroke="#000000" points="413,-261 290,-261 290,-193 413,-193 413,-261"/>
<text text-anchor="middle" x="351.5" y="-245.8" font-family="Helvetica,sans-Serif" font-size="14.00" fill="#000000">X[5] &lt;= 2.347</text>
<text text-anchor="middle" x="351.5" y="-230.8" font-family="Helvetica,sans-Serif" font-size="14.00" fill="#000000">gini = 0.041</text>
<text text-anchor="middle" x="351.5" y="-215.8" font-family="Helvetica,sans-Serif" font-size="14.00" fill="#000000">samples = 48</text>
<text text-anchor="middle" x="351.5" y="-200.8" font-family="Helvetica,sans-Serif" font-size="14.00" fill="#000000">value = [1, 47]</text>
</g>
<!-- 0&#45;&gt;6 -->
<g id="edge6" class="edge">
<title>0&#45;&gt;6</title>
<path fill="none" stroke="#000000" d="M301.7304,-296.9465C307.9912,-288.1475 314.808,-278.5672 321.3313,-269.3993"/>
<polygon fill="#000000" stroke="#000000" points="324.2694,-271.3071 327.2152,-261.13 318.5658,-267.2488 324.2694,-271.3071"/>
<text text-anchor="middle" x="331.3701" y="-282.0823" font-family="Helvetica,sans-Serif" font-size="14.00" fill="#000000">False</text>
</g>
<!-- 2 -->
<g id="node3" class="node">
<title>2</title>
<polygon fill="none" stroke="#000000" points="123,-149.5 0,-149.5 0,-96.5 123,-96.5 123,-149.5"/>
<text text-anchor="middle" x="61.5" y="-134.3" font-family="Helvetica,sans-Serif" font-size="14.00" fill="#000000">gini = 0.0</text>
<text text-anchor="middle" x="61.5" y="-119.3" font-family="Helvetica,sans-Serif" font-size="14.00" fill="#000000">samples = 45</text>
<text text-anchor="middle" x="61.5" y="-104.3" font-family="Helvetica,sans-Serif" font-size="14.00" fill="#000000">value = [45, 0]</text>
</g>
<!-- 1&#45;&gt;2 -->
<g id="edge2" class="edge">
<title>1&#45;&gt;2</title>
<path fill="none" stroke="#000000" d="M157.6765,-192.9465C141.1679,-180.9403 122.6588,-167.4791 106.3198,-155.5962"/>
<polygon fill="#000000" stroke="#000000" points="108.1415,-152.5933 97.9955,-149.5422 104.0242,-158.2545 108.1415,-152.5933"/>
</g>
<!-- 3 -->
<g id="node4" class="node">
<title>3</title>
<polygon fill="none" stroke="#000000" points="269.5,-157 141.5,-157 141.5,-89 269.5,-89 269.5,-157"/>
<text text-anchor="middle" x="205.5" y="-141.8" font-family="Helvetica,sans-Serif" font-size="14.00" fill="#000000">X[15] &lt;= 0.017</text>
<text text-anchor="middle" x="205.5" y="-126.8" font-family="Helvetica,sans-Serif" font-size="14.00" fill="#000000">gini = 0.49</text>
<text text-anchor="middle" x="205.5" y="-111.8" font-family="Helvetica,sans-Serif" font-size="14.00" fill="#000000">samples = 7</text>
<text text-anchor="middle" x="205.5" y="-96.8" font-family="Helvetica,sans-Serif" font-size="14.00" fill="#000000">value = [4, 3]</text>
</g>
<!-- 1&#45;&gt;3 -->
<g id="edge3" class="edge">
<title>1&#45;&gt;3</title>
<path fill="none" stroke="#000000" d="M204.8274,-192.9465C204.906,-184.776 204.991,-175.9318 205.0734,-167.3697"/>
<polygon fill="#000000" stroke="#000000" points="208.5754,-167.1632 205.1718,-157.13 201.5757,-167.0958 208.5754,-167.1632"/>
</g>
<!-- 4 -->
<g id="node5" class="node">
<title>4</title>
<polygon fill="none" stroke="#000000" points="196.5,-53 82.5,-53 82.5,0 196.5,0 196.5,-53"/>
<text text-anchor="middle" x="139.5" y="-37.8" font-family="Helvetica,sans-Serif" font-size="14.00" fill="#000000">gini = 0.0</text>
<text text-anchor="middle" x="139.5" y="-22.8" font-family="Helvetica,sans-Serif" font-size="14.00" fill="#000000">samples = 3</text>
<text text-anchor="middle" x="139.5" y="-7.8" font-family="Helvetica,sans-Serif" font-size="14.00" fill="#000000">value = [0, 3]</text>
</g>
<!-- 3&#45;&gt;4 -->
<g id="edge4" class="edge">
<title>3&#45;&gt;4</title>
<path fill="none" stroke="#000000" d="M182.2309,-88.9777C176.156,-80.0954 169.5979,-70.5067 163.4865,-61.5711"/>
<polygon fill="#000000" stroke="#000000" points="166.3286,-59.5267 157.7943,-53.2485 160.5507,-63.4785 166.3286,-59.5267"/>
</g>
<!-- 5 -->
<g id="node6" class="node">
<title>5</title>
<polygon fill="none" stroke="#000000" points="328.5,-53 214.5,-53 214.5,0 328.5,0 328.5,-53"/>
<text text-anchor="middle" x="271.5" y="-37.8" font-family="Helvetica,sans-Serif" font-size="14.00" fill="#000000">gini = 0.0</text>
<text text-anchor="middle" x="271.5" y="-22.8" font-family="Helvetica,sans-Serif" font-size="14.00" fill="#000000">samples = 4</text>
<text text-anchor="middle" x="271.5" y="-7.8" font-family="Helvetica,sans-Serif" font-size="14.00" fill="#000000">value = [4, 0]</text>
</g>
<!-- 3&#45;&gt;5 -->
<g id="edge5" class="edge">
<title>3&#45;&gt;5</title>
<path fill="none" stroke="#000000" d="M228.7691,-88.9777C234.844,-80.0954 241.4021,-70.5067 247.5135,-61.5711"/>
<polygon fill="#000000" stroke="#000000" points="250.4493,-63.4785 253.2057,-53.2485 244.6714,-59.5267 250.4493,-63.4785"/>
</g>
<!-- 7 -->
<g id="node8" class="node">
<title>7</title>
<polygon fill="none" stroke="#000000" points="412,-149.5 289,-149.5 289,-96.5 412,-96.5 412,-149.5"/>
<text text-anchor="middle" x="350.5" y="-134.3" font-family="Helvetica,sans-Serif" font-size="14.00" fill="#000000">gini = 0.0</text>
<text text-anchor="middle" x="350.5" y="-119.3" font-family="Helvetica,sans-Serif" font-size="14.00" fill="#000000">samples = 47</text>
<text text-anchor="middle" x="350.5" y="-104.3" font-family="Helvetica,sans-Serif" font-size="14.00" fill="#000000">value = [0, 47]</text>
</g>
<!-- 6&#45;&gt;7 -->
<g id="edge7" class="edge">
<title>6&#45;&gt;7</title>
<path fill="none" stroke="#000000" d="M351.1726,-192.9465C351.0698,-182.2621 350.956,-170.4254 350.8517,-159.5742"/>
<polygon fill="#000000" stroke="#000000" points="354.3513,-159.508 350.7552,-149.5422 347.3516,-159.5754 354.3513,-159.508"/>
</g>
<!-- 8 -->
<g id="node9" class="node">
<title>8</title>
<polygon fill="none" stroke="#000000" points="544.5,-149.5 430.5,-149.5 430.5,-96.5 544.5,-96.5 544.5,-149.5"/>
<text text-anchor="middle" x="487.5" y="-134.3" font-family="Helvetica,sans-Serif" font-size="14.00" fill="#000000">gini = 0.0</text>
<text text-anchor="middle" x="487.5" y="-119.3" font-family="Helvetica,sans-Serif" font-size="14.00" fill="#000000">samples = 1</text>
<text text-anchor="middle" x="487.5" y="-104.3" font-family="Helvetica,sans-Serif" font-size="14.00" fill="#000000">value = [1, 0]</text>
</g>
<!-- 6&#45;&gt;8 -->
<g id="edge8" class="edge">
<title>6&#45;&gt;8</title>
<path fill="none" stroke="#000000" d="M396.0315,-192.9465C411.5879,-181.0504 429.0121,-167.726 444.4459,-155.9237"/>
<polygon fill="#000000" stroke="#000000" points="446.9735,-158.397 452.791,-149.5422 442.7213,-152.8364 446.9735,-158.397"/>
</g>
</g>
</svg>
