<?xml version="1.0" encoding="UTF-8" standalone="no"?>
<!DOCTYPE svg PUBLIC "-//W3C//DTD SVG 1.1//EN"
 "http://www.w3.org/Graphics/SVG/1.1/DTD/svg11.dtd">
<!-- Generated by graphviz version 2.40.1 (20161225.0304)
 -->
<!-- Title: Tree Pages: 1 -->
<svg width="216pt" height="165pt"
 viewBox="0.00 0.00 216.00 165.00" xmlns="http://www.w3.org/2000/svg" xmlns:xlink="http://www.w3.org/1999/xlink">
<g id="graph0" class="graph" transform="scale(1 1) rotate(0) translate(4 161)">
<title>Tree</title>
<polygon fill="#ffffff" stroke="transparent" points="-4,4 -4,-161 212,-161 212,4 -4,4"/>
<!-- 0 -->
<g id="node1" class="node">
<title>0</title>
<polygon fill="none" stroke="#000000" points="151,-157 56,-157 56,-89 151,-89 151,-157"/>
<text text-anchor="middle" x="103.5" y="-141.8" font-family="Times,serif" font-size="14.00" fill="#000000">X[1] &lt;= 0.5</text>
<text text-anchor="middle" x="103.5" y="-126.8" font-family="Times,serif" font-size="14.00" fill="#000000">gini = 0.5</text>
<text text-anchor="middle" x="103.5" y="-111.8" font-family="Times,serif" font-size="14.00" fill="#000000">samples = 2</text>
<text text-anchor="middle" x="103.5" y="-96.8" font-family="Times,serif" font-size="14.00" fill="#000000">value = [1, 1]</text>
</g>
<!-- 1 -->
<g id="node2" class="node">
<title>1</title>
<polygon fill="none" stroke="#000000" points="95,-53 0,-53 0,0 95,0 95,-53"/>
<text text-anchor="middle" x="47.5" y="-37.8" font-family="Times,serif" font-size="14.00" fill="#000000">gini = 0.0</text>
<text text-anchor="middle" x="47.5" y="-22.8" font-family="Times,serif" font-size="14.00" fill="#000000">samples = 1</text>
<text text-anchor="middle" x="47.5" y="-7.8" font-family="Times,serif" font-size="14.00" fill="#000000">value = [1, 0]</text>
</g>
<!-- 0&#45;&gt;1 -->
<g id="edge1" class="edge">
<title>0&#45;&gt;1</title>
<path fill="none" stroke="#000000" d="M83.7565,-88.9777C78.7083,-80.2786 73.2669,-70.9018 68.1734,-62.1247"/>
<polygon fill="#000000" stroke="#000000" points="71.0689,-60.1409 63.0224,-53.2485 65.0145,-63.6544 71.0689,-60.1409"/>
<text text-anchor="middle" x="56.6055" y="-73.7109" font-family="Times,serif" font-size="14.00" fill="#000000">True</text>
</g>
<!-- 2 -->
<g id="node3" class="node">
<title>2</title>
<polygon fill="none" stroke="#000000" points="208,-53 113,-53 113,0 208,0 208,-53"/>
<text text-anchor="middle" x="160.5" y="-37.8" font-family="Times,serif" font-size="14.00" fill="#000000">gini = 0.0</text>
<text text-anchor="middle" x="160.5" y="-22.8" font-family="Times,serif" font-size="14.00" fill="#000000">samples = 1</text>
<text text-anchor="middle" x="160.5" y="-7.8" font-family="Times,serif" font-size="14.00" fill="#000000">value = [0, 1]</text>
</g>
<!-- 0&#45;&gt;2 -->
<g id="edge2" class="edge">
<title>0&#45;&gt;2</title>
<path fill="none" stroke="#000000" d="M123.5961,-88.9777C128.7344,-80.2786 134.273,-70.9018 139.4575,-62.1247"/>
<polygon fill="#000000" stroke="#000000" points="142.6281,-63.6387 144.7004,-53.2485 136.601,-60.0786 142.6281,-63.6387"/>
<text text-anchor="middle" x="150.9306" y="-73.7597" font-family="Times,serif" font-size="14.00" fill="#000000">False</text>
</g>
</g>
</svg>
