<?xml version="1.0" encoding="UTF-8" standalone="no"?>
<!DOCTYPE svg PUBLIC "-//W3C//DTD SVG 1.1//EN"
 "http://www.w3.org/Graphics/SVG/1.1/DTD/svg11.dtd">
<!-- Generated by graphviz version 2.40.1 (20161225.0304)
 -->
<!-- Title: Tree Pages: 1 -->
<svg width="551pt" height="373pt"
 viewBox="0.00 0.00 550.50 373.00" xmlns="http://www.w3.org/2000/svg" xmlns:xlink="http://www.w3.org/1999/xlink">
<g id="graph0" class="graph" transform="scale(1 1) rotate(0) translate(4 369)">
<title>Tree</title>
<polygon fill="#ffffff" stroke="transparent" points="-4,4 -4,-369 546.5,-369 546.5,4 -4,4"/>
<!-- 0 -->
<g id="node1" class="node">
<title>0</title>
<polygon fill="none" stroke="#000000" points="341.5,-365 209.5,-365 209.5,-297 341.5,-297 341.5,-365"/>
<text text-anchor="middle" x="275.5" y="-349.8" font-family="Helvetica,sans-Serif" font-size="14.00" fill="#000000">X[10] &lt;= 0.203</text>
<text text-anchor="middle" x="275.5" y="-334.8" font-family="Helvetica,sans-Serif" font-size="14.00" fill="#000000">gini = 0.5</text>
<text text-anchor="middle" x="275.5" y="-319.8" font-family="Helvetica,sans-Serif" font-size="14.00" fill="#000000">samples = 100</text>
<text text-anchor="middle" x="275.5" y="-304.8" font-family="Helvetica,sans-Serif" font-size="14.00" fill="#000000">value = [50, 50]</text>
</g>
<!-- 1 -->
<g id="node2" class="node">
<title>1</title>
<polygon fill="none" stroke="#000000" points="268.5,-261 134.5,-261 134.5,-193 268.5,-193 268.5,-261"/>
<text text-anchor="middle" x="201.5" y="-245.8" font-family="Helvetica,sans-Serif" font-size="14.00" fill="#000000">X[10] &lt;= &#45;0.301</text>
<text text-anchor="middle" x="201.5" y="-230.8" font-family="Helvetica,sans-Serif" font-size="14.00" fill="#000000">gini = 0.109</text>
<text text-anchor="middle" x="201.5" y="-215.8" font-family="Helvetica,sans-Serif" font-size="14.00" fill="#000000">samples = 52</text>
<text text-anchor="middle" x="201.5" y="-200.8" font-family="Helvetica,sans-Serif" font-size="14.00" fill="#000000">value = [49, 3]</text>
</g>
<!-- 0&#45;&gt;1 -->
<g id="edge1" class="edge">
<title>0&#45;&gt;1</title>
<path fill="none" stroke="#000000" d="M251.2696,-296.9465C245.0088,-288.1475 238.192,-278.5672 231.6687,-269.3993"/>
<polygon fill="#000000" stroke="#000000" points="234.4342,-267.2488 225.7848,-261.13 228.7306,-271.3071 234.4342,-267.2488"/>
<text text-anchor="middle" x="221.6299" y="-282.0823" font-family="Helvetica,sans-Serif" font-size="14.00" fill="#000000">True</text>
</g>
<!-- 6 -->
<g id="node7" class="node">
<title>6</title>
<polygon fill="none" stroke="#000000" points="414.5,-261 286.5,-261 286.5,-193 414.5,-193 414.5,-261"/>
<text text-anchor="middle" x="350.5" y="-245.8" font-family="Helvetica,sans-Serif" font-size="14.00" fill="#000000">X[15] &lt;= 1.532</text>
<text text-anchor="middle" x="350.5" y="-230.8" font-family="Helvetica,sans-Serif" font-size="14.00" fill="#000000">gini = 0.041</text>
<text text-anchor="middle" x="350.5" y="-215.8" font-family="Helvetica,sans-Serif" font-size="14.00" fill="#000000">samples = 48</text>
<text text-anchor="middle" x="350.5" y="-200.8" font-family="Helvetica,sans-Serif" font-size="14.00" fill="#000000">value = [1, 47]</text>
</g>
<!-- 0&#45;&gt;6 -->
<g id="edge6" class="edge">
<title>0&#45;&gt;6</title>
<path fill="none" stroke="#000000" d="M300.0578,-296.9465C306.4032,-288.1475 313.3121,-278.5672 319.9236,-269.3993"/>
<polygon fill="#000000" stroke="#000000" points="322.8766,-271.2882 325.887,-261.13 317.1989,-267.1937 322.8766,-271.2882"/>
<text text-anchor="middle" x="329.8852" y="-282.1082" font-family="Helvetica,sans-Serif" font-size="14.00" fill="#000000">False</text>
</g>
<!-- 2 -->
<g id="node3" class="node">
<title>2</title>
<polygon fill="none" stroke="#000000" points="123,-149.5 0,-149.5 0,-96.5 123,-96.5 123,-149.5"/>
<text text-anchor="middle" x="61.5" y="-134.3" font-family="Helvetica,sans-Serif" font-size="14.00" fill="#000000">gini = 0.0</text>
<text text-anchor="middle" x="61.5" y="-119.3" font-family="Helvetica,sans-Serif" font-size="14.00" fill="#000000">samples = 45</text>
<text text-anchor="middle" x="61.5" y="-104.3" font-family="Helvetica,sans-Serif" font-size="14.00" fill="#000000">value = [45, 0]</text>
</g>
<!-- 1&#45;&gt;2 -->
<g id="edge2" class="edge">
<title>1&#45;&gt;2</title>
<path fill="none" stroke="#000000" d="M155.6588,-192.9465C139.4965,-180.9403 121.3758,-167.4791 105.3795,-155.5962"/>
<polygon fill="#000000" stroke="#000000" points="107.3444,-152.6958 97.2298,-149.5422 103.1701,-158.3151 107.3444,-152.6958"/>
</g>
<!-- 3 -->
<g id="node4" class="node">
<title>3</title>
<polygon fill="none" stroke="#000000" points="266,-157 141,-157 141,-89 266,-89 266,-157"/>
<text text-anchor="middle" x="203.5" y="-141.8" font-family="Helvetica,sans-Serif" font-size="14.00" fill="#000000">X[5] &lt;= &#45;0.014</text>
<text text-anchor="middle" x="203.5" y="-126.8" font-family="Helvetica,sans-Serif" font-size="14.00" fill="#000000">gini = 0.49</text>
<text text-anchor="middle" x="203.5" y="-111.8" font-family="Helvetica,sans-Serif" font-size="14.00" fill="#000000">samples = 7</text>
<text text-anchor="middle" x="203.5" y="-96.8" font-family="Helvetica,sans-Serif" font-size="14.00" fill="#000000">value = [4, 3]</text>
</g>
<!-- 1&#45;&gt;3 -->
<g id="edge3" class="edge">
<title>1&#45;&gt;3</title>
<path fill="none" stroke="#000000" d="M202.1549,-192.9465C202.312,-184.776 202.4821,-175.9318 202.6467,-167.3697"/>
<polygon fill="#000000" stroke="#000000" points="206.1506,-167.1955 202.8437,-157.13 199.1519,-167.0608 206.1506,-167.1955"/>
</g>
<!-- 4 -->
<g id="node5" class="node">
<title>4</title>
<polygon fill="none" stroke="#000000" points="194.5,-53 80.5,-53 80.5,0 194.5,0 194.5,-53"/>
<text text-anchor="middle" x="137.5" y="-37.8" font-family="Helvetica,sans-Serif" font-size="14.00" fill="#000000">gini = 0.0</text>
<text text-anchor="middle" x="137.5" y="-22.8" font-family="Helvetica,sans-Serif" font-size="14.00" fill="#000000">samples = 3</text>
<text text-anchor="middle" x="137.5" y="-7.8" font-family="Helvetica,sans-Serif" font-size="14.00" fill="#000000">value = [0, 3]</text>
</g>
<!-- 3&#45;&gt;4 -->
<g id="edge4" class="edge">
<title>3&#45;&gt;4</title>
<path fill="none" stroke="#000000" d="M180.2309,-88.9777C174.156,-80.0954 167.5979,-70.5067 161.4865,-61.5711"/>
<polygon fill="#000000" stroke="#000000" points="164.3286,-59.5267 155.7943,-53.2485 158.5507,-63.4785 164.3286,-59.5267"/>
</g>
<!-- 5 -->
<g id="node6" class="node">
<title>5</title>
<polygon fill="none" stroke="#000000" points="326.5,-53 212.5,-53 212.5,0 326.5,0 326.5,-53"/>
<text text-anchor="middle" x="269.5" y="-37.8" font-family="Helvetica,sans-Serif" font-size="14.00" fill="#000000">gini = 0.0</text>
<text text-anchor="middle" x="269.5" y="-22.8" font-family="Helvetica,sans-Serif" font-size="14.00" fill="#000000">samples = 4</text>
<text text-anchor="middle" x="269.5" y="-7.8" font-family="Helvetica,sans-Serif" font-size="14.00" fill="#000000">value = [4, 0]</text>
</g>
<!-- 3&#45;&gt;5 -->
<g id="edge5" class="edge">
<title>3&#45;&gt;5</title>
<path fill="none" stroke="#000000" d="M226.7691,-88.9777C232.844,-80.0954 239.4021,-70.5067 245.5135,-61.5711"/>
<polygon fill="#000000" stroke="#000000" points="248.4493,-63.4785 251.2057,-53.2485 242.6714,-59.5267 248.4493,-63.4785"/>
</g>
<!-- 7 -->
<g id="node8" class="node">
<title>7</title>
<polygon fill="none" stroke="#000000" points="410,-149.5 287,-149.5 287,-96.5 410,-96.5 410,-149.5"/>
<text text-anchor="middle" x="348.5" y="-134.3" font-family="Helvetica,sans-Serif" font-size="14.00" fill="#000000">gini = 0.0</text>
<text text-anchor="middle" x="348.5" y="-119.3" font-family="Helvetica,sans-Serif" font-size="14.00" fill="#000000">samples = 47</text>
<text text-anchor="middle" x="348.5" y="-104.3" font-family="Helvetica,sans-Serif" font-size="14.00" fill="#000000">value = [0, 47]</text>
</g>
<!-- 6&#45;&gt;7 -->
<g id="edge7" class="edge">
<title>6&#45;&gt;7</title>
<path fill="none" stroke="#000000" d="M349.8451,-192.9465C349.6397,-182.2621 349.412,-170.4254 349.2034,-159.5742"/>
<polygon fill="#000000" stroke="#000000" points="352.7021,-159.473 349.0104,-149.5422 345.7034,-159.6076 352.7021,-159.473"/>
</g>
<!-- 8 -->
<g id="node9" class="node">
<title>8</title>
<polygon fill="none" stroke="#000000" points="542.5,-149.5 428.5,-149.5 428.5,-96.5 542.5,-96.5 542.5,-149.5"/>
<text text-anchor="middle" x="485.5" y="-134.3" font-family="Helvetica,sans-Serif" font-size="14.00" fill="#000000">gini = 0.0</text>
<text text-anchor="middle" x="485.5" y="-119.3" font-family="Helvetica,sans-Serif" font-size="14.00" fill="#000000">samples = 1</text>
<text text-anchor="middle" x="485.5" y="-104.3" font-family="Helvetica,sans-Serif" font-size="14.00" fill="#000000">value = [1, 0]</text>
</g>
<!-- 6&#45;&gt;8 -->
<g id="edge8" class="edge">
<title>6&#45;&gt;8</title>
<path fill="none" stroke="#000000" d="M394.704,-192.9465C410.1461,-181.0504 427.4422,-167.726 442.7625,-155.9237"/>
<polygon fill="#000000" stroke="#000000" points="445.2603,-158.4176 451.0462,-149.5422 440.9883,-152.8723 445.2603,-158.4176"/>
</g>
</g>
</svg>
