<?xml version="1.0" encoding="UTF-8" standalone="no"?>
<!DOCTYPE svg PUBLIC "-//W3C//DTD SVG 1.1//EN"
 "http://www.w3.org/Graphics/SVG/1.1/DTD/svg11.dtd">
<!-- Generated by graphviz version 2.40.1 (20161225.0304)
 -->
<!-- Title: Tree Pages: 1 -->
<svg width="473pt" height="373pt"
 viewBox="0.00 0.00 472.50 373.00" xmlns="http://www.w3.org/2000/svg" xmlns:xlink="http://www.w3.org/1999/xlink">
<g id="graph0" class="graph" transform="scale(1 1) rotate(0) translate(4 369)">
<title>Tree</title>
<polygon fill="#ffffff" stroke="transparent" points="-4,4 -4,-369 468.5,-369 468.5,4 -4,4"/>
<!-- 0 -->
<g id="node1" class="node">
<title>0</title>
<polygon fill="none" stroke="#000000" points="292,-365 182,-365 182,-297 292,-297 292,-365"/>
<text text-anchor="middle" x="237" y="-349.8" font-family="Times,serif" font-size="14.00" fill="#000000">X[10] &lt;= 0.203</text>
<text text-anchor="middle" x="237" y="-334.8" font-family="Times,serif" font-size="14.00" fill="#000000">gini = 0.5</text>
<text text-anchor="middle" x="237" y="-319.8" font-family="Times,serif" font-size="14.00" fill="#000000">samples = 100</text>
<text text-anchor="middle" x="237" y="-304.8" font-family="Times,serif" font-size="14.00" fill="#000000">value = [50, 50]</text>
</g>
<!-- 1 -->
<g id="node2" class="node">
<title>1</title>
<polygon fill="none" stroke="#000000" points="230.5,-261 117.5,-261 117.5,-193 230.5,-193 230.5,-261"/>
<text text-anchor="middle" x="174" y="-245.8" font-family="Times,serif" font-size="14.00" fill="#000000">X[10] &lt;= &#45;0.301</text>
<text text-anchor="middle" x="174" y="-230.8" font-family="Times,serif" font-size="14.00" fill="#000000">gini = 0.109</text>
<text text-anchor="middle" x="174" y="-215.8" font-family="Times,serif" font-size="14.00" fill="#000000">samples = 52</text>
<text text-anchor="middle" x="174" y="-200.8" font-family="Times,serif" font-size="14.00" fill="#000000">value = [49, 3]</text>
</g>
<!-- 0&#45;&gt;1 -->
<g id="edge1" class="edge">
<title>0&#45;&gt;1</title>
<path fill="none" stroke="#000000" d="M216.3714,-296.9465C211.1501,-288.3271 205.4745,-278.9579 200.0245,-269.9611"/>
<polygon fill="#000000" stroke="#000000" points="202.8497,-267.8697 194.6749,-261.13 196.8626,-271.4965 202.8497,-267.8697"/>
<text text-anchor="middle" x="188.7142" y="-281.709" font-family="Times,serif" font-size="14.00" fill="#000000">True</text>
</g>
<!-- 6 -->
<g id="node7" class="node">
<title>6</title>
<polygon fill="none" stroke="#000000" points="351,-261 249,-261 249,-193 351,-193 351,-261"/>
<text text-anchor="middle" x="300" y="-245.8" font-family="Times,serif" font-size="14.00" fill="#000000">X[5] &lt;= 2.347</text>
<text text-anchor="middle" x="300" y="-230.8" font-family="Times,serif" font-size="14.00" fill="#000000">gini = 0.041</text>
<text text-anchor="middle" x="300" y="-215.8" font-family="Times,serif" font-size="14.00" fill="#000000">samples = 48</text>
<text text-anchor="middle" x="300" y="-200.8" font-family="Times,serif" font-size="14.00" fill="#000000">value = [1, 47]</text>
</g>
<!-- 0&#45;&gt;6 -->
<g id="edge6" class="edge">
<title>0&#45;&gt;6</title>
<path fill="none" stroke="#000000" d="M257.6286,-296.9465C262.8499,-288.3271 268.5255,-278.9579 273.9755,-269.9611"/>
<polygon fill="#000000" stroke="#000000" points="277.1374,-271.4965 279.3251,-261.13 271.1503,-267.8697 277.1374,-271.4965"/>
<text text-anchor="middle" x="285.2858" y="-281.709" font-family="Times,serif" font-size="14.00" fill="#000000">False</text>
</g>
<!-- 2 -->
<g id="node3" class="node">
<title>2</title>
<polygon fill="none" stroke="#000000" points="102,-149.5 0,-149.5 0,-96.5 102,-96.5 102,-149.5"/>
<text text-anchor="middle" x="51" y="-134.3" font-family="Times,serif" font-size="14.00" fill="#000000">gini = 0.0</text>
<text text-anchor="middle" x="51" y="-119.3" font-family="Times,serif" font-size="14.00" fill="#000000">samples = 45</text>
<text text-anchor="middle" x="51" y="-104.3" font-family="Times,serif" font-size="14.00" fill="#000000">value = [45, 0]</text>
</g>
<!-- 1&#45;&gt;2 -->
<g id="edge2" class="edge">
<title>1&#45;&gt;2</title>
<path fill="none" stroke="#000000" d="M133.7252,-192.9465C119.7861,-181.1606 104.1888,-167.9726 90.3268,-156.2519"/>
<polygon fill="#000000" stroke="#000000" points="92.2873,-153.3262 82.3912,-149.5422 87.7676,-158.6715 92.2873,-153.3262"/>
</g>
<!-- 3 -->
<g id="node4" class="node">
<title>3</title>
<polygon fill="none" stroke="#000000" points="229.5,-157 120.5,-157 120.5,-89 229.5,-89 229.5,-157"/>
<text text-anchor="middle" x="175" y="-141.8" font-family="Times,serif" font-size="14.00" fill="#000000">X[15] &lt;= 0.017</text>
<text text-anchor="middle" x="175" y="-126.8" font-family="Times,serif" font-size="14.00" fill="#000000">gini = 0.49</text>
<text text-anchor="middle" x="175" y="-111.8" font-family="Times,serif" font-size="14.00" fill="#000000">samples = 7</text>
<text text-anchor="middle" x="175" y="-96.8" font-family="Times,serif" font-size="14.00" fill="#000000">value = [4, 3]</text>
</g>
<!-- 1&#45;&gt;3 -->
<g id="edge3" class="edge">
<title>1&#45;&gt;3</title>
<path fill="none" stroke="#000000" d="M174.3274,-192.9465C174.406,-184.776 174.491,-175.9318 174.5734,-167.3697"/>
<polygon fill="#000000" stroke="#000000" points="178.0754,-167.1632 174.6718,-157.13 171.0757,-167.0958 178.0754,-167.1632"/>
</g>
<!-- 4 -->
<g id="node5" class="node">
<title>4</title>
<polygon fill="none" stroke="#000000" points="166.5,-53 71.5,-53 71.5,0 166.5,0 166.5,-53"/>
<text text-anchor="middle" x="119" y="-37.8" font-family="Times,serif" font-size="14.00" fill="#000000">gini = 0.0</text>
<text text-anchor="middle" x="119" y="-22.8" font-family="Times,serif" font-size="14.00" fill="#000000">samples = 3</text>
<text text-anchor="middle" x="119" y="-7.8" font-family="Times,serif" font-size="14.00" fill="#000000">value = [0, 3]</text>
</g>
<!-- 3&#45;&gt;4 -->
<g id="edge4" class="edge">
<title>3&#45;&gt;4</title>
<path fill="none" stroke="#000000" d="M155.2565,-88.9777C150.2083,-80.2786 144.7669,-70.9018 139.6734,-62.1247"/>
<polygon fill="#000000" stroke="#000000" points="142.5689,-60.1409 134.5224,-53.2485 136.5145,-63.6544 142.5689,-60.1409"/>
</g>
<!-- 5 -->
<g id="node6" class="node">
<title>5</title>
<polygon fill="none" stroke="#000000" points="279.5,-53 184.5,-53 184.5,0 279.5,0 279.5,-53"/>
<text text-anchor="middle" x="232" y="-37.8" font-family="Times,serif" font-size="14.00" fill="#000000">gini = 0.0</text>
<text text-anchor="middle" x="232" y="-22.8" font-family="Times,serif" font-size="14.00" fill="#000000">samples = 4</text>
<text text-anchor="middle" x="232" y="-7.8" font-family="Times,serif" font-size="14.00" fill="#000000">value = [4, 0]</text>
</g>
<!-- 3&#45;&gt;5 -->
<g id="edge5" class="edge">
<title>3&#45;&gt;5</title>
<path fill="none" stroke="#000000" d="M195.0961,-88.9777C200.2344,-80.2786 205.773,-70.9018 210.9575,-62.1247"/>
<polygon fill="#000000" stroke="#000000" points="214.1281,-63.6387 216.2004,-53.2485 208.101,-60.0786 214.1281,-63.6387"/>
</g>
<!-- 7 -->
<g id="node8" class="node">
<title>7</title>
<polygon fill="none" stroke="#000000" points="351,-149.5 249,-149.5 249,-96.5 351,-96.5 351,-149.5"/>
<text text-anchor="middle" x="300" y="-134.3" font-family="Times,serif" font-size="14.00" fill="#000000">gini = 0.0</text>
<text text-anchor="middle" x="300" y="-119.3" font-family="Times,serif" font-size="14.00" fill="#000000">samples = 47</text>
<text text-anchor="middle" x="300" y="-104.3" font-family="Times,serif" font-size="14.00" fill="#000000">value = [0, 47]</text>
</g>
<!-- 6&#45;&gt;7 -->
<g id="edge7" class="edge">
<title>6&#45;&gt;7</title>
<path fill="none" stroke="#000000" d="M300,-192.9465C300,-182.2621 300,-170.4254 300,-159.5742"/>
<polygon fill="#000000" stroke="#000000" points="303.5001,-159.5421 300,-149.5422 296.5001,-159.5422 303.5001,-159.5421"/>
</g>
<!-- 8 -->
<g id="node9" class="node">
<title>8</title>
<polygon fill="none" stroke="#000000" points="464.5,-149.5 369.5,-149.5 369.5,-96.5 464.5,-96.5 464.5,-149.5"/>
<text text-anchor="middle" x="417" y="-134.3" font-family="Times,serif" font-size="14.00" fill="#000000">gini = 0.0</text>
<text text-anchor="middle" x="417" y="-119.3" font-family="Times,serif" font-size="14.00" fill="#000000">samples = 1</text>
<text text-anchor="middle" x="417" y="-104.3" font-family="Times,serif" font-size="14.00" fill="#000000">value = [1, 0]</text>
</g>
<!-- 6&#45;&gt;8 -->
<g id="edge8" class="edge">
<title>6&#45;&gt;8</title>
<path fill="none" stroke="#000000" d="M338.3102,-192.9465C351.5694,-181.1606 366.4058,-167.9726 379.5916,-156.2519"/>
<polygon fill="#000000" stroke="#000000" points="381.9912,-158.8018 387.1401,-149.5422 377.3407,-153.5699 381.9912,-158.8018"/>
</g>
</g>
</svg>
