<?xml version="1.0" encoding="UTF-8" standalone="no"?>
<!DOCTYPE svg PUBLIC "-//W3C//DTD SVG 1.1//EN"
 "http://www.w3.org/Graphics/SVG/1.1/DTD/svg11.dtd">
<!-- Generated by graphviz version 2.40.1 (20161225.0304)
 -->
<!-- Title: Tree Pages: 1 -->
<svg width="416pt" height="165pt"
 viewBox="0.00 0.00 416.00 165.00" xmlns="http://www.w3.org/2000/svg" xmlns:xlink="http://www.w3.org/1999/xlink">
<g id="graph0" class="graph" transform="scale(1 1) rotate(0) translate(4 161)">
<title>Tree</title>
<polygon fill="#ffffff" stroke="transparent" points="-4,4 -4,-161 412,-161 412,4 -4,4"/>
<!-- 0 -->
<g id="node1" class="node">
<title>0</title>
<polygon fill="none" stroke="#000000" points="328,-157 106,-157 106,-89 328,-89 328,-157"/>
<text text-anchor="middle" x="217" y="-141.8" font-family="Helvetica,sans-Serif" font-size="14.00" fill="#000000">X[4] &lt;= 0.5</text>
<text text-anchor="middle" x="217" y="-126.8" font-family="Helvetica,sans-Serif" font-size="14.00" fill="#000000">gini = 0.75</text>
<text text-anchor="middle" x="217" y="-111.8" font-family="Helvetica,sans-Serif" font-size="14.00" fill="#000000">samples = 1668</text>
<text text-anchor="middle" x="217" y="-96.8" font-family="Helvetica,sans-Serif" font-size="14.00" fill="#000000">value = [417, 417, 417, 417]</text>
</g>
<!-- 1 -->
<g id="node2" class="node">
<title>1</title>
<polygon fill="none" stroke="#000000" points="222,-53 0,-53 0,0 222,0 222,-53"/>
<text text-anchor="middle" x="111" y="-37.8" font-family="Helvetica,sans-Serif" font-size="14.00" fill="#000000">gini = 0.745</text>
<text text-anchor="middle" x="111" y="-22.8" font-family="Helvetica,sans-Serif" font-size="14.00" fill="#000000">samples = 1548</text>
<text text-anchor="middle" x="111" y="-7.8" font-family="Helvetica,sans-Serif" font-size="14.00" fill="#000000">value = [417, 417, 417, 297]</text>
</g>
<!-- 0&#45;&gt;1 -->
<g id="edge1" class="edge">
<title>0&#45;&gt;1</title>
<path fill="none" stroke="#000000" d="M179.6284,-88.9777C169.3688,-79.6376 158.2511,-69.5163 148.0118,-60.1947"/>
<polygon fill="#000000" stroke="#000000" points="150.1326,-57.3923 140.3817,-53.2485 145.4202,-62.5686 150.1326,-57.3923"/>
<text text-anchor="middle" x="141.5533" y="-74.521" font-family="Helvetica,sans-Serif" font-size="14.00" fill="#000000">True</text>
</g>
<!-- 2 -->
<g id="node3" class="node">
<title>2</title>
<polygon fill="none" stroke="#000000" points="408,-53 240,-53 240,0 408,0 408,-53"/>
<text text-anchor="middle" x="324" y="-37.8" font-family="Helvetica,sans-Serif" font-size="14.00" fill="#000000">gini = 0.0</text>
<text text-anchor="middle" x="324" y="-22.8" font-family="Helvetica,sans-Serif" font-size="14.00" fill="#000000">samples = 120</text>
<text text-anchor="middle" x="324" y="-7.8" font-family="Helvetica,sans-Serif" font-size="14.00" fill="#000000">value = [0, 0, 0, 120]</text>
</g>
<!-- 0&#45;&gt;2 -->
<g id="edge2" class="edge">
<title>0&#45;&gt;2</title>
<path fill="none" stroke="#000000" d="M254.7242,-88.9777C265.0806,-79.6376 276.3031,-69.5163 286.639,-60.1947"/>
<polygon fill="#000000" stroke="#000000" points="289.2591,-62.5449 294.3411,-53.2485 284.5709,-57.3467 289.2591,-62.5449"/>
<text text-anchor="middle" x="293.0529" y="-74.5153" font-family="Helvetica,sans-Serif" font-size="14.00" fill="#000000">False</text>
</g>
</g>
</svg>
