<?xml version="1.0" encoding="UTF-8" standalone="no"?>
<!DOCTYPE svg PUBLIC "-//W3C//DTD SVG 1.1//EN"
 "http://www.w3.org/Graphics/SVG/1.1/DTD/svg11.dtd">
<!-- Generated by graphviz version 2.40.1 (20161225.0304)
 -->
<!-- Title: Tree Pages: 1 -->
<svg width="254pt" height="165pt"
 viewBox="0.00 0.00 254.00 165.00" xmlns="http://www.w3.org/2000/svg" xmlns:xlink="http://www.w3.org/1999/xlink">
<g id="graph0" class="graph" transform="scale(1 1) rotate(0) translate(4 161)">
<title>Tree</title>
<polygon fill="#ffffff" stroke="transparent" points="-4,4 -4,-161 250,-161 250,4 -4,4"/>
<!-- 0 -->
<g id="node1" class="node">
<title>0</title>
<polygon fill="none" stroke="#000000" points="180,-157 66,-157 66,-89 180,-89 180,-157"/>
<text text-anchor="middle" x="123" y="-141.8" font-family="Helvetica,sans-Serif" font-size="14.00" fill="#000000">X[0] &lt;= 0.5</text>
<text text-anchor="middle" x="123" y="-126.8" font-family="Helvetica,sans-Serif" font-size="14.00" fill="#000000">gini = 0.5</text>
<text text-anchor="middle" x="123" y="-111.8" font-family="Helvetica,sans-Serif" font-size="14.00" fill="#000000">samples = 2</text>
<text text-anchor="middle" x="123" y="-96.8" font-family="Helvetica,sans-Serif" font-size="14.00" fill="#000000">value = [1, 1]</text>
</g>
<!-- 1 -->
<g id="node2" class="node">
<title>1</title>
<polygon fill="none" stroke="#000000" points="114,-53 0,-53 0,0 114,0 114,-53"/>
<text text-anchor="middle" x="57" y="-37.8" font-family="Helvetica,sans-Serif" font-size="14.00" fill="#000000">gini = 0.0</text>
<text text-anchor="middle" x="57" y="-22.8" font-family="Helvetica,sans-Serif" font-size="14.00" fill="#000000">samples = 1</text>
<text text-anchor="middle" x="57" y="-7.8" font-family="Helvetica,sans-Serif" font-size="14.00" fill="#000000">value = [1, 0]</text>
</g>
<!-- 0&#45;&gt;1 -->
<g id="edge1" class="edge">
<title>0&#45;&gt;1</title>
<path fill="none" stroke="#000000" d="M99.7309,-88.9777C93.656,-80.0954 87.0979,-70.5067 80.9865,-61.5711"/>
<polygon fill="#000000" stroke="#000000" points="83.8286,-59.5267 75.2943,-53.2485 78.0507,-63.4785 83.8286,-59.5267"/>
<text text-anchor="middle" x="70.6825" y="-74.1194" font-family="Helvetica,sans-Serif" font-size="14.00" fill="#000000">True</text>
</g>
<!-- 2 -->
<g id="node3" class="node">
<title>2</title>
<polygon fill="none" stroke="#000000" points="246,-53 132,-53 132,0 246,0 246,-53"/>
<text text-anchor="middle" x="189" y="-37.8" font-family="Helvetica,sans-Serif" font-size="14.00" fill="#000000">gini = 0.0</text>
<text text-anchor="middle" x="189" y="-22.8" font-family="Helvetica,sans-Serif" font-size="14.00" fill="#000000">samples = 1</text>
<text text-anchor="middle" x="189" y="-7.8" font-family="Helvetica,sans-Serif" font-size="14.00" fill="#000000">value = [0, 1]</text>
</g>
<!-- 0&#45;&gt;2 -->
<g id="edge2" class="edge">
<title>0&#45;&gt;2</title>
<path fill="none" stroke="#000000" d="M146.2691,-88.9777C152.344,-80.0954 158.9021,-70.5067 165.0135,-61.5711"/>
<polygon fill="#000000" stroke="#000000" points="167.9493,-63.4785 170.7057,-53.2485 162.1714,-59.5267 167.9493,-63.4785"/>
<text text-anchor="middle" x="175.3175" y="-74.1194" font-family="Helvetica,sans-Serif" font-size="14.00" fill="#000000">False</text>
</g>
</g>
</svg>
