<?xml version="1.0" encoding="UTF-8" standalone="no"?>
<!DOCTYPE svg PUBLIC "-//W3C//DTD SVG 1.1//EN"
 "http://www.w3.org/Graphics/SVG/1.1/DTD/svg11.dtd">
<!-- Generated by graphviz version 2.40.1 (20161225.0304)
 -->
<!-- Title: Tree Pages: 1 -->
<svg width="352pt" height="165pt"
 viewBox="0.00 0.00 351.50 165.00" xmlns="http://www.w3.org/2000/svg" xmlns:xlink="http://www.w3.org/1999/xlink">
<g id="graph0" class="graph" transform="scale(1 1) rotate(0) translate(4 161)">
<title>Tree</title>
<polygon fill="#ffffff" stroke="transparent" points="-4,4 -4,-161 347.5,-161 347.5,4 -4,4"/>
<!-- 0 -->
<g id="node1" class="node">
<title>0</title>
<polygon fill="none" stroke="#000000" points="275,-157 90,-157 90,-89 275,-89 275,-157"/>
<text text-anchor="middle" x="182.5" y="-141.8" font-family="Times,serif" font-size="14.00" fill="#000000">X[4] &lt;= 0.5</text>
<text text-anchor="middle" x="182.5" y="-126.8" font-family="Times,serif" font-size="14.00" fill="#000000">gini = 0.75</text>
<text text-anchor="middle" x="182.5" y="-111.8" font-family="Times,serif" font-size="14.00" fill="#000000">samples = 1668</text>
<text text-anchor="middle" x="182.5" y="-96.8" font-family="Times,serif" font-size="14.00" fill="#000000">value = [417, 417, 417, 417]</text>
</g>
<!-- 1 -->
<g id="node2" class="node">
<title>1</title>
<polygon fill="none" stroke="#000000" points="185,-53 0,-53 0,0 185,0 185,-53"/>
<text text-anchor="middle" x="92.5" y="-37.8" font-family="Times,serif" font-size="14.00" fill="#000000">gini = 0.745</text>
<text text-anchor="middle" x="92.5" y="-22.8" font-family="Times,serif" font-size="14.00" fill="#000000">samples = 1548</text>
<text text-anchor="middle" x="92.5" y="-7.8" font-family="Times,serif" font-size="14.00" fill="#000000">value = [417, 417, 417, 297]</text>
</g>
<!-- 0&#45;&gt;1 -->
<g id="edge1" class="edge">
<title>0&#45;&gt;1</title>
<path fill="none" stroke="#000000" d="M150.7694,-88.9777C142.2292,-79.8207 132.9887,-69.9129 124.4374,-60.744"/>
<polygon fill="#000000" stroke="#000000" points="126.8269,-58.1744 117.4468,-53.2485 121.7077,-62.9488 126.8269,-58.1744"/>
<text text-anchor="middle" x="116.576" y="-74.5333" font-family="Times,serif" font-size="14.00" fill="#000000">True</text>
</g>
<!-- 2 -->
<g id="node3" class="node">
<title>2</title>
<polygon fill="none" stroke="#000000" points="343.5,-53 203.5,-53 203.5,0 343.5,0 343.5,-53"/>
<text text-anchor="middle" x="273.5" y="-37.8" font-family="Times,serif" font-size="14.00" fill="#000000">gini = 0.0</text>
<text text-anchor="middle" x="273.5" y="-22.8" font-family="Times,serif" font-size="14.00" fill="#000000">samples = 120</text>
<text text-anchor="middle" x="273.5" y="-7.8" font-family="Times,serif" font-size="14.00" fill="#000000">value = [0, 0, 0, 120]</text>
</g>
<!-- 0&#45;&gt;2 -->
<g id="edge2" class="edge">
<title>0&#45;&gt;2</title>
<path fill="none" stroke="#000000" d="M214.5832,-88.9777C223.2183,-79.8207 232.5614,-69.9129 241.2078,-60.744"/>
<polygon fill="#000000" stroke="#000000" points="243.9617,-62.9251 248.276,-53.2485 238.8689,-58.1226 243.9617,-62.9251"/>
<text text-anchor="middle" x="249.0091" y="-74.5377" font-family="Times,serif" font-size="14.00" fill="#000000">False</text>
</g>
</g>
</svg>
