<?xml version="1.0" encoding="UTF-8" standalone="no"?>
<!DOCTYPE svg PUBLIC "-//W3C//DTD SVG 1.1//EN"
 "http://www.w3.org/Graphics/SVG/1.1/DTD/svg11.dtd">
<!-- Generated by graphviz version 2.40.1 (20161225.0304)
 -->
<!-- Title: Tree Pages: 1 -->
<svg width="331pt" height="269pt"
 viewBox="0.00 0.00 331.00 269.00" xmlns="http://www.w3.org/2000/svg" xmlns:xlink="http://www.w3.org/1999/xlink">
<g id="graph0" class="graph" transform="scale(1 1) rotate(0) translate(4 265)">
<title>Tree</title>
<polygon fill="#ffffff" stroke="transparent" points="-4,4 -4,-265 327,-265 327,4 -4,4"/>
<!-- 0 -->
<g id="node1" class="node">
<title>0</title>
<polygon fill="none" stroke="#000000" points="260.5,-261 128.5,-261 128.5,-193 260.5,-193 260.5,-261"/>
<text text-anchor="middle" x="194.5" y="-245.8" font-family="Times,serif" font-size="14.00" fill="#000000">X[1] &lt;= 5.746</text>
<text text-anchor="middle" x="194.5" y="-230.8" font-family="Times,serif" font-size="14.00" fill="#000000">gini = 0.667</text>
<text text-anchor="middle" x="194.5" y="-215.8" font-family="Times,serif" font-size="14.00" fill="#000000">samples = 100</text>
<text text-anchor="middle" x="194.5" y="-200.8" font-family="Times,serif" font-size="14.00" fill="#000000">value = [34, 33, 33]</text>
</g>
<!-- 1 -->
<g id="node2" class="node">
<title>1</title>
<polygon fill="none" stroke="#000000" points="188,-157 63,-157 63,-89 188,-89 188,-157"/>
<text text-anchor="middle" x="125.5" y="-141.8" font-family="Times,serif" font-size="14.00" fill="#000000">X[1] &lt;= &#45;2.087</text>
<text text-anchor="middle" x="125.5" y="-126.8" font-family="Times,serif" font-size="14.00" fill="#000000">gini = 0.5</text>
<text text-anchor="middle" x="125.5" y="-111.8" font-family="Times,serif" font-size="14.00" fill="#000000">samples = 66</text>
<text text-anchor="middle" x="125.5" y="-96.8" font-family="Times,serif" font-size="14.00" fill="#000000">value = [0, 33, 33]</text>
</g>
<!-- 0&#45;&gt;1 -->
<g id="edge1" class="edge">
<title>0&#45;&gt;1</title>
<path fill="none" stroke="#000000" d="M171.9068,-192.9465C166.1286,-184.2373 159.8425,-174.7626 153.8166,-165.6801"/>
<polygon fill="#000000" stroke="#000000" points="156.589,-163.5278 148.1439,-157.13 150.756,-167.3978 156.589,-163.5278"/>
<text text-anchor="middle" x="143.1866" y="-177.9336" font-family="Times,serif" font-size="14.00" fill="#000000">True</text>
</g>
<!-- 4 -->
<g id="node5" class="node">
<title>4</title>
<polygon fill="none" stroke="#000000" points="323,-149.5 206,-149.5 206,-96.5 323,-96.5 323,-149.5"/>
<text text-anchor="middle" x="264.5" y="-134.3" font-family="Times,serif" font-size="14.00" fill="#000000">gini = 0.0</text>
<text text-anchor="middle" x="264.5" y="-119.3" font-family="Times,serif" font-size="14.00" fill="#000000">samples = 34</text>
<text text-anchor="middle" x="264.5" y="-104.3" font-family="Times,serif" font-size="14.00" fill="#000000">value = [34, 0, 0]</text>
</g>
<!-- 0&#45;&gt;4 -->
<g id="edge4" class="edge">
<title>0&#45;&gt;4</title>
<path fill="none" stroke="#000000" d="M217.4206,-192.9465C224.9828,-181.7113 233.4024,-169.2021 241.0067,-157.9043"/>
<polygon fill="#000000" stroke="#000000" points="243.9548,-159.7924 246.6351,-149.5422 238.1477,-155.8837 243.9548,-159.7924"/>
<text text-anchor="middle" x="251.4295" y="-170.3781" font-family="Times,serif" font-size="14.00" fill="#000000">False</text>
</g>
<!-- 2 -->
<g id="node3" class="node">
<title>2</title>
<polygon fill="none" stroke="#000000" points="117,-53 0,-53 0,0 117,0 117,-53"/>
<text text-anchor="middle" x="58.5" y="-37.8" font-family="Times,serif" font-size="14.00" fill="#000000">gini = 0.0</text>
<text text-anchor="middle" x="58.5" y="-22.8" font-family="Times,serif" font-size="14.00" fill="#000000">samples = 33</text>
<text text-anchor="middle" x="58.5" y="-7.8" font-family="Times,serif" font-size="14.00" fill="#000000">value = [0, 0, 33]</text>
</g>
<!-- 1&#45;&gt;2 -->
<g id="edge2" class="edge">
<title>1&#45;&gt;2</title>
<path fill="none" stroke="#000000" d="M101.8783,-88.9777C95.7113,-80.0954 89.0539,-70.5067 82.8499,-61.5711"/>
<polygon fill="#000000" stroke="#000000" points="85.6497,-59.4666 77.0715,-53.2485 79.8997,-63.4589 85.6497,-59.4666"/>
</g>
<!-- 3 -->
<g id="node4" class="node">
<title>3</title>
<polygon fill="none" stroke="#000000" points="252,-53 135,-53 135,0 252,0 252,-53"/>
<text text-anchor="middle" x="193.5" y="-37.8" font-family="Times,serif" font-size="14.00" fill="#000000">gini = 0.0</text>
<text text-anchor="middle" x="193.5" y="-22.8" font-family="Times,serif" font-size="14.00" fill="#000000">samples = 33</text>
<text text-anchor="middle" x="193.5" y="-7.8" font-family="Times,serif" font-size="14.00" fill="#000000">value = [0, 33, 0]</text>
</g>
<!-- 1&#45;&gt;3 -->
<g id="edge3" class="edge">
<title>1&#45;&gt;3</title>
<path fill="none" stroke="#000000" d="M149.4743,-88.9777C155.7333,-80.0954 162.4901,-70.5067 168.7867,-61.5711"/>
<polygon fill="#000000" stroke="#000000" points="171.7521,-63.4389 174.6513,-53.2485 166.0301,-59.4068 171.7521,-63.4389"/>
</g>
</g>
</svg>
